<svg width="29" height="32" viewBox="0 0 29 32" fill="none" xmlns="http://www.w3.org/2000/svg">
<path d="M19.2105 3.80402C19.2105 3.80402 18.8505 3.90683 18.259 4.08675C18.1561 3.75261 18.0018 3.36707 17.7961 2.95583C17.1274 1.67069 16.1245 0.976712 14.9415 0.976712C14.8644 0.976712 14.7872 0.976712 14.6843 1.00241C14.6586 0.951009 14.6072 0.925306 14.5815 0.8739C14.0671 0.308439 13.3985 0.0514104 12.6013 0.0771132C11.0583 0.128519 9.51525 1.23374 8.28084 3.21286C7.40646 4.60081 6.73782 6.3486 6.55781 7.71085C4.78334 8.25061 3.54893 8.63615 3.52321 8.66185C2.62312 8.94458 2.59741 8.97029 2.49454 9.81848C2.34024 10.461 0 28.5815 0 28.5815L19.442 31.9486V3.75262C19.3391 3.77832 19.2619 3.77832 19.2105 3.80402ZM14.7101 5.19197C13.6814 5.50041 12.5498 5.86025 11.444 6.19438C11.7526 4.98635 12.3698 3.77832 13.0899 2.98153C13.3728 2.6988 13.7585 2.36466 14.1957 2.15904C14.6329 3.08434 14.7358 4.34378 14.7101 5.19197ZM12.627 1.10523C12.987 1.10523 13.2956 1.18233 13.5528 1.33655C13.1413 1.54217 12.7299 1.87631 12.3441 2.26185C11.3669 3.31567 10.6211 4.96065 10.3125 6.52852C9.38666 6.81125 8.46086 7.09398 7.6122 7.35101C8.15225 4.90924 10.2353 1.18233 12.627 1.10523ZM9.61812 15.2418C9.72098 16.8868 14.0671 17.2466 14.3243 21.1277C14.5043 24.1863 12.7041 26.2683 10.1067 26.4225C6.96928 26.6281 5.24625 24.7775 5.24625 24.7775L5.91488 21.9502C5.91488 21.9502 7.63792 23.261 9.02663 23.1582C9.92672 23.1068 10.261 22.3615 10.2353 21.8474C10.1067 19.6884 6.55781 19.8169 6.32635 16.2699C6.12062 13.3141 8.0751 10.3068 12.3955 10.0241C14.0671 9.92129 14.9158 10.3325 14.9158 10.3325L13.9386 14.0337C13.9386 14.0337 12.8327 13.5197 11.5212 13.6225C9.61812 13.751 9.5924 14.959 9.61812 15.2418ZM15.7387 4.88354C15.7387 4.11245 15.6359 3.00723 15.2758 2.08193C16.4588 2.31326 17.0246 3.6241 17.2817 4.42089C16.8188 4.5494 16.3045 4.70362 15.7387 4.88354Z" fill="white"/>
<path d="M20.085 31.8458L28.1601 29.841C28.1601 29.841 24.6883 6.3743 24.6626 6.22009C24.6369 6.06587 24.5083 5.96306 24.3797 5.96306C24.2511 5.96306 21.988 5.91165 21.988 5.91165C21.988 5.91165 20.5993 4.57511 20.085 4.06105V31.8458Z" fill="white"/>
</svg>
